HIERARCHY
ROOT root
{
	OFFSET 0.000000 0.000000 0.000000
	CHANNELS 6 Xposition Yposition Zposition Zrotation Yrotation Xrotation
	JOINT lhip
	{
		OFFSET 0.058581 -0.082280 -0.017664
		CHANNELS 3 Zrotation Yrotation Xrotation
		JOINT lknee
		{
			OFFSET 0.043451 -0.386469 0.008037
			CHANNELS 3 Zrotation Yrotation Xrotation
			JOINT lankle
			{
				OFFSET -0.014790 -0.426874 -0.037428
				CHANNELS 3 Zrotation Yrotation Xrotation
				JOINT ltoe
				{
					OFFSET 0.041054 -0.060286 0.122042
					CHANNELS 3 Zrotation Yrotation Xrotation
					End Site
					{
						OFFSET 0.000000 0.000000 0.000000
					}
				}
			}
		}
	}
	JOINT rhip
	{
		OFFSET -0.060310 -0.090513 -0.013543
		CHANNELS 3 Zrotation Yrotation Xrotation
		JOINT rknee
		{
			OFFSET -0.043257 -0.383688 -0.004843
			CHANNELS 3 Zrotation Yrotation Xrotation
			JOINT rankle
			{
				OFFSET 0.019056 -0.420046 -0.034562
				CHANNELS 3 Zrotation Yrotation Xrotation
				JOINT rtoe
				{
					OFFSET -0.034840 -0.062106 0.130323
					CHANNELS 3 Zrotation Yrotation Xrotation
					End Site
					{
						OFFSET 0.000000 0.000000 0.000000
					}
				}
			}
		}
	}
	JOINT lowerback
	{
		OFFSET 0.004439 0.124404 -0.038385
		CHANNELS 3 Zrotation Yrotation Xrotation
		JOINT upperback
		{
			OFFSET 0.004488 0.137956 0.026820
			CHANNELS 3 Zrotation Yrotation Xrotation
			JOINT chest
			{
				OFFSET -0.002265 0.056032 0.002855
				CHANNELS 3 Zrotation Yrotation Xrotation
				JOINT lowerneck
				{
					OFFSET -0.013390 0.211636 -0.033468
					CHANNELS 3 Zrotation Yrotation Xrotation
					JOINT upperneck
					{
						OFFSET 0.010113 0.088937 0.050410
						CHANNELS 3 Zrotation Yrotation Xrotation
						End Site
						{
							OFFSET 0.000000 0.000000 0.000000
						}
					}
				}
				JOINT lclavicle
				{
					OFFSET 0.071702 0.114000 -0.018898
					CHANNELS 3 Zrotation Yrotation Xrotation
					JOINT lshoulder
					{
						OFFSET 0.122921 0.045205 -0.019046
						CHANNELS 3 Zrotation Yrotation Xrotation
						JOINT lelbow
						{
							OFFSET 0.255332 -0.015649 -0.022946
							CHANNELS 3 Zrotation Yrotation Xrotation
							JOINT lwrist
							{
								OFFSET 0.265709 0.012698 -0.007375
								CHANNELS 3 Zrotation Yrotation Xrotation
								End Site
								{
									OFFSET 0.000000 0.000000 0.000000
								}
							}
						}
					}
				}
				JOINT rclavicle
				{
					OFFSET -0.082954 0.112472 -0.023707
					CHANNELS 3 Zrotation Yrotation Xrotation
					JOINT rshoulder
					{
						OFFSET -0.113228 0.046853 -0.008472
						CHANNELS 3 Zrotation Yrotation Xrotation
						JOINT relbow
						{
							OFFSET -0.260127 -0.014369 -0.031269
							CHANNELS 3 Zrotation Yrotation Xrotation
							JOINT rwrist
							{
								OFFSET -0.269108 0.006794 -0.006027
								CHANNELS 3 Zrotation Yrotation Xrotation
								End Site
								{
									OFFSET 0.000000 0.000000 0.000000
								}
							}
						}
					}
				}
			}
		}
	}
}
MOTION
Frames: 11
Frame Time: 0.033333
0.323207 0.671033 1.298951 -90.473982 0.427094 89.357008 0.121472 -10.225287 -21.267041 -6.718308 -3.329565 25.524700 9.983214 13.632275 -20.134615 0.000000 -0.000000 0.000000 -0.470406 1.136339 -12.631967 -0.128991 -4.943507 57.818640 7.407099 -7.223727 8.059835 0.000000 -0.000000 0.000000 -7.970059 7.766869 18.645835 1.818116 -1.242573 2.898212 1.643876 1.515498 4.042192 3.426522 -0.579882 8.022244 6.069797 -7.815105 11.800316 -17.860592 -3.026983 2.964043 -66.275204 -4.544805 9.611571 18.624016 -37.900953 11.954793 -3.167249 5.038596 1.270545 18.439015 4.439192 2.139436 66.866805 1.277346 9.878325 -20.881968 28.862593 4.733544 13.201037 -5.070617 -1.650831 
0.296789 0.668713 1.306285 -89.875067 1.201599 88.448071 -0.388061 -8.739797 -17.132150 -6.608375 -5.739066 23.769520 9.501484 13.769143 -21.313047 0.000000 -0.000000 0.000000 -0.289414 1.660537 -17.617995 -0.456985 -6.002325 60.573306 6.573339 -7.093034 2.033512 0.000000 -0.000000 0.000000 -7.287461 5.914310 19.511216 1.891368 -1.173110 2.544274 1.556980 0.894606 4.291938 3.683726 0.425717 8.431457 5.712868 -7.696373 11.988929 -17.790023 -2.789842 2.826757 -66.232202 -5.180506 9.707084 18.090163 -38.598840 13.110891 -2.663946 4.845461 2.048884 18.336779 3.269122 2.396746 67.168864 0.083343 8.672733 -20.534059 28.330349 4.862719 12.283161 -5.145834 -2.386856 
0.271465 0.666698 1.312383 -89.011496 1.975219 87.700141 -0.491964 -7.348379 -13.378572 -6.669129 -8.173117 22.107628 8.827513 13.830519 -22.462514 0.000000 -0.000000 0.000000 -0.401169 2.005498 -22.634268 -0.803410 -7.324136 60.887072 6.259897 -7.657639 -3.365074 0.000000 -0.000000 0.000000 -6.658094 4.110089 20.024445 2.105877 -1.296777 2.542996 1.499620 0.310749 4.667787 4.116534 1.384311 8.344552 5.335117 -8.073453 12.199501 -17.597398 -2.744427 2.589998 -66.389009 -6.135164 10.168542 17.958333 -39.020612 13.800270 -3.027526 4.779895 2.209146 18.343562 1.992369 2.216926 67.415147 -1.396679 7.687458 -20.624174 27.771169 4.748121 13.240629 -5.196451 -3.071234 
0.246618 0.664811 1.317079 -88.091775 2.757827 87.096818 -0.270199 -5.873937 -9.904686 -6.662786 -10.362070 20.485548 8.346441 13.716711 -23.498108 0.000000 -0.000000 0.000000 -0.662019 2.166249 -27.366726 -1.125137 -8.816066 59.021688 5.520683 -8.932174 -6.074487 0.000000 -0.000000 0.000000 -6.001577 2.224785 20.373567 2.211757 -1.362461 2.512687 1.516842 -0.383585 5.005433 4.111183 1.772990 8.432202 5.191442 -7.685865 12.183142 -17.462022 -2.515060 2.869125 -66.543172 -7.427930 10.448336 17.704603 -39.776975 14.598992 -2.605538 4.611891 1.934065 18.253684 0.886702 2.661269 67.766436 -2.295763 7.051366 -20.358076 26.602722 4.887136 12.536325 -5.143477 -3.632150 
0.222020 0.663609 1.320581 -87.344246 3.533404 86.608572 0.291941 -4.233247 -6.653689 -6.513770 -12.071554 18.963660 7.760186 12.801607 -24.867476 0.000000 -0.000000 0.000000 -0.960298 2.141126 -31.585515 -1.413708 -10.086967 55.443246 5.351194 -9.274571 -8.486784 0.000000 -0.000000 0.000000 -5.350506 0.481826 20.825952 2.226599 -1.420098 2.463782 1.656025 -1.000004 4.869913 3.969210 2.298283 8.776259 4.961381 -7.109325 12.517463 -17.468405 -2.330416 3.262252 -66.748211 -8.544802 10.238997 17.984712 -40.852571 14.909639 -4.481977 4.417890 2.486934 18.154747 -0.034073 3.475379 68.219461 -3.231240 6.132713 -20.194097 25.229846 5.388261 12.802244 -5.397489 -2.705243 
0.198137 0.663154 1.322837 -86.624954 4.068062 86.262382 0.878973 -2.774563 -3.738496 -6.595269 -14.005535 17.653502 7.376747 12.571405 -25.754662 0.000000 -0.000000 0.000000 -1.311740 1.792373 -35.129985 -0.957530 -10.613264 50.213926 5.535352 -9.349739 -9.502928 0.000000 -0.000000 0.000000 -4.956879 -0.796481 21.143751 2.402269 -1.638175 2.358694 1.759931 -1.611634 5.499512 3.748965 2.609075 8.371682 5.319066 -7.545775 12.532700 -17.328195 -2.147638 2.953504 -66.609829 -9.718812 11.167649 16.933127 -41.738592 16.148961 -0.318850 3.262775 2.163391 18.239445 -0.882024 3.302076 68.609298 -4.455052 6.018341 -19.772926 23.396625 5.996731 11.807087 -5.871920 -2.521213 
0.174540 0.662984 1.323106 -85.846970 4.485037 86.034481 1.527192 -1.579504 -1.192871 -6.435814 -15.114212 16.584245 7.163961 11.635848 -26.608683 0.000000 -0.000000 0.000000 -1.663970 1.334618 -38.017803 -0.585516 -11.131526 44.221857 5.419158 -9.024988 -9.196629 0.000000 -0.000000 0.000000 -4.655366 -1.875172 21.201545 2.481519 -1.837798 2.665218 1.935764 -2.011432 5.621439 3.755342 3.149866 8.250163 5.415659 -7.550962 12.531897 -16.885285 -2.339027 3.207374 -67.070752 -11.394914 11.539840 17.681071 -42.616868 15.154003 -1.361806 3.103757 1.540330 18.229648 -1.662331 3.872002 69.408961 -4.935650 5.519169 -19.704905 20.782328 6.054472 12.723543 -6.495375 -2.216965 
0.150878 0.663028 1.322329 -85.013392 4.713480 85.970907 2.031569 -1.034260 1.080310 -6.463891 -16.343482 15.729119 7.028566 11.399041 -27.448868 0.000000 -0.000000 0.000000 -2.013171 0.644528 -40.220207 0.382004 -10.880185 37.926590 6.365694 -7.946669 -7.550243 0.000000 -0.000000 0.000000 -4.385507 -2.676318 21.091017 2.589284 -2.130408 2.721196 2.006366 -2.517691 6.231184 3.721725 3.523076 8.015574 5.626158 -7.777045 12.745603 -16.591216 -2.339359 3.242396 -67.386873 -12.981424 12.246052 17.777964 -43.243531 15.077246 0.420843 2.462597 1.810755 18.196804 -2.258739 4.234533 70.437502 -5.252096 5.539239 -19.509950 17.741964 5.781417 12.227811 -7.180125 -2.260053 
0.126257 0.663547 1.320773 -84.263213 4.880097 85.844766 2.540419 -0.291927 3.445909 -6.298774 -17.491385 14.921228 6.894146 11.097079 -28.170277 0.000000 -0.000000 0.000000 -2.129882 0.108901 -41.537951 0.797287 -10.944769 31.944680 7.344572 -6.962696 -5.333617 0.000000 -0.000000 0.000000 -4.063701 -3.361485 21.303432 2.561023 -2.286211 2.813463 2.183323 -2.541855 6.162516 3.360924 3.404344 8.241602 6.232412 -7.868349 12.606932 -16.431719 -2.591909 3.038908 -67.626876 -14.066172 12.816900 17.634504 -43.756054 15.171712 0.795009 2.186147 1.889251 18.380420 -2.719531 4.445716 71.395914 -6.286961 4.843967 -19.315461 15.066325 5.520149 12.537350 -8.161087 -1.575944 
0.101474 0.665099 1.318855 -83.546046 5.009155 85.673959 3.189421 0.193603 5.645854 -6.225127 -18.388617 14.475439 6.661294 10.817200 -28.727879 0.000000 -0.000000 0.000000 -1.998178 -0.272114 -42.217585 0.807023 -11.065675 27.522574 7.499207 -6.526224 -1.527931 0.000000 -0.000000 0.000000 -3.766455 -4.054222 21.646047 2.456007 -2.316498 2.713060 2.326494 -2.847347 6.382764 2.955625 3.196906 8.090468 6.144333 -7.347854 12.824475 -16.294029 -2.308530 2.953097 -67.992194 -15.084399 12.888534 17.730993 -44.571869 15.475906 0.413642 1.913233 1.803334 18.162208 -3.121952 4.990549 72.676112 -6.378430 4.770376 -18.913672 12.314216 5.668437 12.990231 -8.888862 -1.174564 
0.076405 0.667477 1.317363 -82.818487 4.997877 85.669722 3.817225 0.246737 7.546280 -6.342071 -19.025491 14.432570 6.483207 10.605688 -29.089844 0.000000 -0.000000 0.000000 -2.000915 -0.561408 -42.836496 0.981812 -10.507174 26.938981 8.570830 -5.850144 5.915557 0.000000 -0.000000 0.000000 -3.476359 -4.626461 21.708337 2.360812 -2.325762 2.650263 2.317871 -2.916572 6.756244 2.542606 2.656098 8.065195 6.726119 -7.281653 12.784597 -16.386970 -2.549812 2.819247 -68.150729 -15.800152 12.631712 18.137418 -44.932278 14.866395 -1.027091 2.027903 1.797144 18.247425 -3.303284 5.096662 73.661996 -6.914866 4.560434 -18.360104 10.267427 5.916398 13.851070 -9.205692 -1.178360 
